<?xml version="1.0" encoding="iso-8859-1"?>
<!-- Generator: Adobe Illustrator 19.0.0, SVG Export Plug-In . SVG Version: 6.00 Build 0)  -->
<svg version="1.1" id="Capa_1" xmlns="http://www.w3.org/2000/svg" xmlns:xlink="http://www.w3.org/1999/xlink" x="0px" y="0px"
	 viewBox="0 0 231.045 231.045" style="enable-background:new 0 0 231.045 231.045;" xml:space="preserve">
<g>
	<path fill="#fff" d="M190.1,28.9c0-3.3-2.7-6-6-6h-57.5l12.2-12.2c2.3-2.3,2.3-6.1,0-8.5c-2.3-2.3-6.1-2.3-8.5,0l-23,23
		c-2.3,2.3-2.3,6.1,0,8.5l22.4,22.4c1.2,1.2,2.7,1.8,4.2,1.8s3.1-0.6,4.2-1.8c2.3-2.3,2.3-6.1,0-8.5l-12.7-12.7h58.6
		C187.4,34.9,190.1,32.2,190.1,28.9z"/>
	<path fill="#fff" d="M187.2,115.8c-3.9-22.9-20.3-26-27.4-26.2c-2-0.1-3.8-1.1-4.9-2.8c-5.4-8.5-12.6-10.7-18.8-10.7
		c-2.8,0-5.4,0.5-7.5,1c-0.6,0.2-1.2,0.2-1.8,0.2c-2.2,0-4.3-1-5.6-2.8c-5.3-7.3-12.2-9.3-18.1-9.3c-1.6,0-3.1,0.1-4.5,0.4
		c-0.4,0.1-0.7,0.1-1.1,0.1c-3.8,0-7-3.1-7-7l-0.1-42.3C90.5,5.5,82.3,0,74.1,0c-8.2,0-16.4,5.5-16.4,16.4c0,18.4,0.1,73.5,0.1,90.1
		c0,2.8-1.7,5.3-4.3,6.4C21,126.6,61.2,187.6,68.4,198c0.7,1,1.1,2.2,1.2,3.4l1.8,23.2c0.3,3.6,3.3,6.3,7,6.3c0,0,0,0,0,0L157,231
		c3.5,0,6.5-2.5,6.9-6l3.2-24.3c0.1-1,0.5-2,1.1-2.9C189.2,165.4,190.8,137,187.2,115.8z"/>
</g>

</svg>
